<?xml version="1.0" standalone="no"?>
<!DOCTYPE svg PUBLIC "-//W3C//DTD SVG 20010904//EN"
 "http://www.w3.org/TR/2001/REC-SVG-20010904/DTD/svg10.dtd">
<svg version="1.0" xmlns="http://www.w3.org/2000/svg"
 width="100.000000pt" height="100.000000pt" viewBox="0 0 100.000000 100.000000"
 preserveAspectRatio="xMidYMid meet">

<g transform="translate(0.000000,100.000000) scale(0.100000,-0.100000)"
fill="#0060ba" stroke="none">
<path d="M500 745 c0 -14 -6 -25 -12 -26 -7 0 -50 0 -95 0 -90 -1 -86 2 -98
-74 -12 -73 -13 -75 -55 -75 -31 0 -39 -4 -44 -22 -11 -43 -7 -48 34 -48 22 0
40 -3 40 -6 0 -19 -49 -69 -84 -85 l-41 -19 95 0 c113 0 138 10 165 68 l19 42
153 0 c132 0 153 -2 153 -16 0 -24 -19 -54 -34 -54 -9 0 -12 -7 -9 -20 5 -18
14 -20 84 -20 87 0 91 3 103 73 6 34 10 37 40 37 27 0 38 6 55 33 l20 32 -47
5 c-26 3 -46 10 -45 15 1 6 5 38 8 71 l7 61 -116 -2 -117 -1 6 28 7 28 -96 0
c-96 0 -96 0 -96 -25z m254 -122 c-4 -21 -9 -41 -11 -45 -2 -5 -74 -8 -159 -8
l-154 0 0 38 c0 21 3 42 7 45 3 4 78 7 165 7 l159 0 -7 -37z"/>
<path d="M560 631 c1 -17 28 -36 50 -34 14 0 36 1 50 2 22 1 23 2 9 17 -15 15
-109 28 -109 15z"/>
<path d="M500 473 c0 -1 5 -14 12 -28 10 -23 16 -25 79 -25 l69 0 -11 24 c-10
22 -19 25 -80 28 -38 2 -69 2 -69 1z"/>
<path d="M170 327 c0 -51 -40 -117 -98 -164 l-53 -43 425 0 425 0 25 42 26 43
-30 3 c-33 4 -33 3 -10 115 l8 37 -359 0 -359 0 0 -33z m194 -64 c-11 -51 -13
-53 -50 -53 -33 0 -36 2 -30 23 3 12 6 30 6 40 0 13 9 17 40 17 39 0 40 -1 34
-27z m186 10 c-1 -48 -12 -63 -46 -63 -32 0 -34 2 -34 33 0 42 5 47 47 47 25
0 33 -4 33 -17z m186 1 c-3 -9 -6 -27 -6 -40 0 -21 -4 -24 -40 -24 -43 0 -43
1 -34 49 6 28 10 31 46 31 33 0 39 -3 34 -16z"/>
</g>
</svg>
